PathFileType	4	(X/Y/Z)	Walk5.trc
DataRate	CameraRate	NumFrames	NumMarkers	Units	OrigDataRate	OrigDataStartFrame	OrigNumFrames
200.000000	200.000000	7	58	mm	200.000000	654	695
Frame#	Times		LToe		RBHD		LWRR		LElbow		LACR1		C7		RMT5		RToe		RTB2		LCAR		RTB3		LWRU		RCAR		RMT1		LElbowM		RFA1		RMMAL		LTH3		LASI		RCAL		RWRU		RLFC		LTH4		RElbow		LTB2		LMMAL		LPSI		RASI		RElbowM		LCAL		RPSI		LLFC		RTH3		LBHD		T10		LTH2		RFHD		RBack		LMT5		LUA1		RUA1		LFHD		RLMAL		RMFC		LLMAL		LMFC		RACR1		LTB1		RWRR		LTB4		LTB3		RTH4		RTB1		LMT1		RTH1		RTB4		RTH2		LTH1
			X1	Y1	Z1	X2	Y2	Z2	X3	Y3	Z3	X4	Y4	Z4	X5	Y5	Z5	X6	Y6	Z6	X7	Y7	Z7	X8	Y8	Z8	X9	Y9	Z9	X10	Y10	Z10	X11	Y11	Z11	X12	Y12	Z12	X13	Y13	Z13	X14	Y14	Z14	X15	Y15	Z15	X16	Y16	Z16	X17	Y17	Z17	X18	Y18	Z18	X19	Y19	Z19	X20	Y20	Z20	X21	Y21	Z21	X22	Y22	Z22	X23	Y23	Z23	X24	Y24	Z24	X25	Y25	Z25	X26	Y26	Z26	X27	Y27	Z27	X28	Y28	Z28	X29	Y29	Z29	X30	Y30	Z30	X31	Y31	Z31	X32	Y32	Z32	X33	Y33	Z33	X34	Y34	Z34	X35	Y35	Z35	X36	Y36	Z36	X37	Y37	Z37	X38	Y38	Z38	X39	Y39	Z39	X40	Y40	Z40	X41	Y41	Z41	X42	Y42	Z42	X43	Y43	Z43	X44	Y44	Z44	X45	Y45	Z45	X46	Y46	Z46	X47	Y47	Z47	X48	Y48	Z48	X49	Y49	Z49	X50	Y50	Z50	X51	Y51	Z51	X52	Y52	Z52	X53	Y53	Z53	X54	Y54	Z54	X55	Y55	Z55	X56	Y56	Z56	X57	Y57	Z57	X58	Y58	Z58

654	3.27	927.35	27.798	-65.703	733.71	1614	-107.02	828.47	810.44	-303.96	741.85	1078.6	-318.63	801.24	1419.8	-208.26	700.11	1482.8	-46.543	761.45	64.736	123.68	843.56	64.038	88.76	817.53	324.39	115.84	769.55	940.11	-317.7	775.51	244.44	43.317	901.58	804.3	-287.19	784.77	800.1	247.16	796.99	57.495	50.479	695.99	1069.7	-247.27	698.23	938.73	248.04	697.3	138	22.122	793.6	577.76	-153.47	810.69	1034.1	-181.35	606.14	125.05	39.513	716.91	819.44	218.93	884.86	540.54	120.55	786.54	670.14	-176.62	668.91	1098.2	245.64	798.97	295.7	-123.76	739.88	70.19	-14.929	615.3	1039.7	-68.054	797.81	1001.1	125.71	636.26	1101.8	166.75	652.8	35.261	-48.026	609.89	1040.2	0.71623	786.6	514.49	-142.13	873.77	583.67	122.6	730.08	1607.8	29.47	625.98	1226.8	-40.028	848.88	680.39	-137.56	909.13	1652.3	-70.295	668.86	1374.8	105.37	833.07	22.218	-124.67	779.83	1214.8	-280.91	751.26	1254	203.66	906.73	1650.4	4.7341	669.14	146.9	99.383	870.33	509.85	-6.4602	717.41	59.995	-96.775	775.05	497.03	-14.359	799.03	1429.3	116.49	825.47	387.66	-56.029	794.53	847.28	198.99	803	297.2	-51.318	783.36	206.73	-49.135	903.24	698.12	102.85	876.26	400.61	39.664	872.5	30.955	-40.218	781.95	785.76	174.86	831.16	320.11	38.553	844.58	673.02	141.63	779.53	760.5	-195.55
655	3.275	927.55	27.305	-65.859	738.02	1614.1	-107.49	837.02	811.18	-304	747.87	1078.5	-319.28	805.49	1419.9	-208.72	704.41	1482.8	-46.992	778.2	62.553	122.92	860.82	63.405	88.529	828.39	323.5	115.14	776.8	940.25	-317.98	788.6	242.64	42.454	910.19	805.79	-287.27	788.07	800.04	246.76	814.39	56.304	49.989	702.08	1069.3	-247.89	701.86	938.92	247.53	712.87	134.43	21.096	796	577.59	-153.49	815.21	1034.4	-181.86	621.86	119.47	38.065	720.36	819.62	218.35	891.74	541.34	120.05	789.45	669.98	-176.77	672.95	1098.5	245.11	800.05	295.35	-123.7	739.78	70.089	-14.763	619.92	1039.7	-68.004	802.81	1001.3	125.3	640.41	1102.1	166.22	652.85	35.294	-47.882	614.64	1040.2	0.74424	788.54	514.27	-142.14	880.32	584.51	122.21	734.38	1608	28.99	630.53	1226.7	-40.13	851.85	679.88	-137.55	913.45	1652.4	-70.751	673.27	1374.9	104.95	833.1	22.224	-124.71	785.07	1215	-281.44	755.48	1254.2	203.22	911.04	1650.5	4.2752	684.11	142.61	98.188	877.24	510.42	-6.8518	717.51	60.017	-96.633	776.43	496.94	-14.31	803.43	1429.4	116.04	826.82	387.2	-55.951	798.1	847.24	198.66	803.99	296.86	-51.228	783.99	206.51	-49.044	909.07	699.1	102.34	885.44	401.72	38.568	872.57	30.93	-40.279	791.11	784.61	171.97	842.5	319.32	37.862	850.65	673.65	141.31	783.04	760.41	-195.67
656	3.28	927.73	26.842	-66.008	742.35	1614.2	-107.96	845.53	811.92	-304.03	753.87	1078.4	-319.93	809.73	1420.1	-209.17	708.73	1482.8	-47.417	795.05	60.389	122.14	878.18	62.776	88.306	839.21	322.58	114.45	784.01	940.38	-318.26	801.75	240.82	41.59	918.73	807.28	-287.34	791.41	799.96	246.35	831.9	55.149	49.494	708.15	1068.9	-248.52	705.53	939.07	247.05	728.62	130.86	20.023	798.41	577.42	-153.49	819.68	1034.6	-182.33	637.81	113.9	36.54	723.86	819.76	217.78	898.47	542.06	119.57	792.39	669.8	-176.89	677.02	1098.7	244.61	801.14	294.99	-123.62	739.71	69.987	-14.59	624.53	1039.7	-67.951	807.77	1001.3	124.92	644.57	1102.4	165.74	652.92	35.323	-47.732	619.4	1040.1	0.77922	790.5	514.04	-142.15	886.74	585.27	121.83	738.69	1608.1	28.521	635.08	1226.6	-40.202	854.84	679.38	-137.52	917.78	1652.4	-71.202	677.7	1375	104.55	833.12	22.232	-124.74	790.28	1215.1	-281.97	759.72	1254.4	202.82	915.36	1650.6	3.8213	699.24	138.29	96.945	883.99	510.89	-7.2308	717.61	60.037	-96.489	777.97	496.8	-14.309	807.85	1429.5	115.59	828.17	386.74	-55.854	801.71	847.17	198.32	805.01	296.52	-51.133	784.62	206.28	-48.94	914.79	699.99	101.81	894.65	402.82	37.444	872.64	30.907	-40.338	800.11	783.11	169.11	853.74	318.45	37.236	856.65	674.22	140.98	786.57	760.31	-195.78
657	3.285	927.9	26.411	-66.149	746.69	1614.2	-108.41	853.98	812.65	-304.05	759.86	1078.3	-320.58	813.98	1420.2	-209.62	713.06	1482.8	-47.817	812	58.259	121.35	895.62	62.163	88.093	850	321.63	113.76	791.18	940.49	-318.55	814.97	239.01	40.728	927.22	808.75	-287.4	794.81	799.84	245.93	849.49	54.042	48.996	714.19	1068.4	-249.16	709.26	939.2	246.59	744.55	127.31	18.901	800.84	577.24	-153.49	824.1	1034.8	-182.76	653.98	108.36	34.937	727.4	819.87	217.21	905.06	542.72	119.09	795.35	669.61	-176.97	681.12	1098.9	244.15	802.25	294.63	-123.54	739.68	69.887	-14.413	629.14	1039.6	-67.894	812.72	1001.3	124.59	648.74	1102.6	165.29	652.99	35.35	-47.578	624.15	1040.1	0.8225	792.47	513.81	-142.15	893.04	585.97	121.48	743.03	1608.1	28.067	639.64	1226.5	-40.246	857.83	678.87	-137.45	922.12	1652.4	-71.646	682.16	1375	104.18	833.14	22.24	-124.77	795.47	1215.1	-282.52	763.98	1254.5	202.44	919.7	1650.6	3.375	714.52	133.99	95.652	890.56	511.25	-7.5978	717.71	60.055	-96.341	779.65	496.62	-14.344	812.31	1429.5	115.15	829.51	386.26	-55.74	805.35	847.08	197.99	806.05	296.18	-51.032	785.26	206.05	-48.823	920.42	700.79	101.25	903.89	403.88	36.318	872.7	30.886	-40.396	808.89	781.33	166.33	864.89	317.52	36.677	862.56	674.72	140.65	790.11	760.19	-195.87
658	3.29	928.05	26.014	-66.283	751.05	1614.2	-108.85	862.38	813.35	-304.06	765.82	1078.1	-321.24	818.24	1420.2	-210.05	717.42	1482.8	-48.192	829.03	56.179	120.53	913.14	61.582	87.892	860.74	320.65	113.06	798.33	940.59	-318.85	828.23	237.21	39.873	935.64	810.21	-287.44	798.26	799.69	245.5	867.16	52.996	48.499	720.22	1068	-249.82	713.04	939.3	246.15	760.66	123.8	17.734	803.29	577.05	-153.47	828.47	1034.9	-183.15	670.39	102.86	33.254	730.99	819.93	216.66	911.49	543.29	118.63	798.36	669.4	-177.01	685.26	1099	243.73	803.37	294.26	-123.45	739.72	69.788	-14.233	633.75	1039.6	-67.832	817.64	1001.1	124.3	652.93	1102.9	164.88	653.07	35.375	-47.423	628.91	1039.9	0.87485	794.46	513.57	-142.16	899.2	586.6	121.17	747.38	1608.1	27.627	644.21	1226.4	-40.267	860.83	678.36	-137.36	926.48	1652.4	-72.081	686.64	1375	103.83	833.16	22.247	-124.79	800.63	1215.2	-283.06	768.25	1254.6	202.1	924.06	1650.6	2.9388	729.94	129.7	94.311	896.97	511.51	-7.9543	717.81	60.074	-96.193	781.43	496.4	-14.401	816.8	1429.5	114.73	830.86	385.78	-55.614	809.03	846.97	197.65	807.12	295.84	-50.926	785.91	205.81	-48.694	925.95	701.48	100.66	913.17	404.9	35.218	872.77	30.868	-40.453	817.38	779.34	163.7	875.95	316.55	36.181	868.39	675.16	140.33	793.68	760.07	-195.94
659	3.295	928.19	25.651	-66.409	755.41	1614.1	-109.27	870.71	814.04	-304.07	771.78	1077.9	-321.9	822.5	1420.2	-210.47	721.8	1482.7	-48.542	846.15	54.166	119.69	930.72	61.046	87.705	871.42	319.66	112.37	805.46	940.66	-319.15	841.53	235.42	39.026	944	811.64	-287.47	801.76	799.51	245.06	884.91	52.024	48.003	726.22	1067.5	-250.5	716.88	939.36	245.74	776.93	120.37	16.523	805.76	576.86	-153.45	832.78	1034.9	-183.5	687.01	97.432	31.49	734.63	819.96	216.13	917.76	543.78	118.17	801.4	669.17	-177.03	689.43	1099.1	243.34	804.52	293.9	-123.35	739.83	69.692	-14.054	638.36	1039.5	-67.763	822.55	1001	124.04	657.13	1103	164.51	653.15	35.4	-47.267	633.66	1039.8	0.93679	796.48	513.32	-142.16	905.23	587.16	120.89	751.75	1608.1	27.203	648.78	1226.3	-40.268	863.83	677.84	-137.25	930.86	1652.4	-72.506	691.16	1374.9	103.49	833.18	22.25	-124.81	805.77	1215.2	-283.62	772.54	1254.7	201.78	928.43	1650.5	2.5146	745.5	125.45	92.923	903.21	511.67	-8.3025	717.9	60.092	-96.044	783.29	496.15	-14.469	821.32	1429.5	114.32	832.21	385.3	-55.481	812.75	846.84	197.3	808.2	295.5	-50.817	786.57	205.56	-48.556	931.38	702.08	100.05	922.46	405.86	34.175	872.83	30.851	-40.509	825.54	777.22	161.25	886.93	315.55	35.741	874.14	675.54	140	797.26	759.93	-196
660	3.3	928.32	25.324	-66.527	759.8	1614	-109.67	878.99	814.7	-304.06	777.73	1077.7	-322.56	826.78	1420.2	-210.88	726.2	1482.6	-48.867	863.33	52.235	118.85	948.37	60.571	87.533	882.05	318.66	111.68	812.56	940.71	-319.47	854.85	233.68	38.189	952.29	813.04	-287.49	805.33	799.3	244.62	902.73	51.137	47.512	732.2	1066.9	-251.18	720.78	939.38	245.34	793.37	117.03	15.27	808.24	576.65	-153.43	837.03	1034.9	-183.8	703.85	92.09	29.648	738.31	819.96	215.62	923.87	544.17	117.72	804.47	668.93	-177.01	693.64	1099.2	242.98	805.68	293.53	-123.26	740	69.597	-13.877	642.96	1039.4	-67.686	827.45	1000.7	123.82	661.35	1103.1	164.18	653.24	35.429	-47.112	638.42	1039.6	1.0089	798.53	513.07	-142.17	911.13	587.64	120.64	756.14	1608	26.797	653.35	1226.1	-40.252	866.85	677.32	-137.11	935.25	1652.3	-72.917	695.7	1374.8	103.18	833.19	22.248	-124.82	810.89	1215.2	-284.18	776.86	1254.8	201.49	932.82	1650.5	2.1047	761.2	121.25	91.488	909.28	511.72	-8.6456	717.99	60.112	-95.896	785.21	495.88	-14.54	825.87	1429.4	113.93	833.57	384.82	-55.346	816.5	846.68	196.95	809.3	295.15	-50.705	787.23	205.31	-48.411	936.71	702.56	99.43	931.76	406.72	33.218	872.89	30.835	-40.562	833.36	775.05	159.01	897.84	314.55	35.347	879.79	675.84	139.68	800.87	759.77	-196.04
